<?xml version="1.0" encoding="utf-8"?>
<!-- Generator: Adobe Illustrator 16.2.0, SVG Export Plug-In . SVG Version: 6.00 Build 0)  -->
<!DOCTYPE svg PUBLIC "-//W3C//DTD SVG 1.1//EN" "http://www.w3.org/Graphics/SVG/1.1/DTD/svg11.dtd">
<svg version="1.1" id="Layer_1" xmlns="http://www.w3.org/2000/svg" xmlns:xlink="http://www.w3.org/1999/xlink" x="0px" y="0px"
	 width="620px" height="584.438px" viewBox="1605.852 2534.431 620 584.438" enable-background="new 1605.852 2534.431 620 584.438"
	 xml:space="preserve">
<ellipse cx="1915.852" cy="2826.649" rx="310" ry="292.219"/>
<rect x="806.654" y="3270.609" fill="none" width="1126.087" height="747.825"/>
<g>
	<g>
		<path fill="#FFFFFF" d="M1897.26,2740.019h-66.148v-6.673c3.074-0.229,6.689-0.784,10.848-1.671
			c4.154-0.883,6.233-1.98,6.233-3.293c0-0.456-0.042-0.971-0.129-1.54c-0.084-0.57-0.328-1.341-0.726-2.313l-10.363-25.157h-41.918
			c-0.967,2.339-2.029,5.078-3.191,8.215c-1.165,3.138-2.168,5.934-3.02,8.385c-1.077,3.197-1.717,5.506-1.915,6.934
			c-0.201,1.429-0.3,2.426-0.3,2.994c0,1.826,1.381,3.382,4.146,4.666c2.764,1.282,7.368,2.209,13.808,2.78v6.673h-49.803v-6.673
			c1.883-0.114,4.008-0.415,6.375-0.897c2.366-0.485,4.235-1.155,5.604-2.014c2.339-1.368,4.321-3.051,5.946-5.05
			c1.625-1.995,2.98-4.362,4.064-7.102c6.618-16.029,13.25-32.088,19.896-48.177c6.646-16.086,13.989-33.828,22.033-53.227h17.114
			c11.182,27.497,19.938,49.232,26.272,65.207c6.33,15.975,11.723,29.209,16.172,39.706c0.742,1.712,1.683,3.267,2.824,4.664
			c1.141,1.397,2.766,2.726,4.877,3.979c1.597,0.914,3.451,1.6,5.563,2.055c2.11,0.457,4.021,0.74,5.734,0.855v6.672H1897.26z
			 M1833.453,2690.9l-17.575-43.893l-17.317,43.893H1833.453z"/>
		<path fill="#FFFFFF" d="M1982.662,2670.79c0,4.336-1.343,8.146-4.022,11.424c-2.683,3.283-6.218,4.922-10.611,4.922
			c-4.164,0-7.688-1.052-10.567-3.153c-2.882-2.104-4.321-5.198-4.321-9.289c0-1.987,0.142-3.534,0.428-4.643
			c0.285-1.106,0.542-2.146,0.771-3.109c-2.625,0.113-5.393,1.019-8.302,2.713c-2.909,1.698-5.476,3.958-7.7,6.784v46.98
			c0,1.998,0.313,3.65,0.941,4.963c0.627,1.313,1.681,2.341,3.166,3.08c1.255,0.629,3.295,1.155,6.118,1.582
			c2.825,0.43,4.862,0.672,6.118,0.729v6.246h-57.248v-6.246c1.427-0.111,2.866-0.269,4.32-0.47
			c1.456-0.201,2.696-0.471,3.725-0.813c1.824-0.628,3.08-1.597,3.765-2.909s1.027-3.022,1.027-5.135v-49.804
			c0-2.054-0.485-3.894-1.455-5.519c-0.97-1.627-2.14-2.924-3.511-3.894c-1.024-0.687-2.323-1.255-3.893-1.711
			c-1.569-0.458-3.294-0.771-5.177-0.942v-6.248l40.816-2.225l1.285,1.285v12.408h0.341c3.938-4.564,8.116-8.146,12.537-10.742
			c4.421-2.596,9.028-3.893,13.82-3.893c5.307,0,9.57,1.641,12.794,4.92C1981.049,2661.364,1982.662,2665.601,1982.662,2670.79z"/>
		<path fill="#FFFFFF" d="M2052.23,2736.083c-3.65,1.598-7.559,3.039-11.725,4.319c-4.164,1.286-9.24,1.927-15.231,1.927
			c-8.899,0-15.502-2.166-19.81-6.494c-4.309-4.332-6.461-10.517-6.461-18.552v-52.482h-15.402v-9.327h15.745v-25.929h27.725v25.929
			h24.048v9.327h-23.875v46.833c0,6.666,0.929,11.394,2.791,14.186c1.858,2.791,5.193,4.189,10.002,4.189
			c1.545,0,3.693-0.113,6.439-0.344c2.748-0.228,4.665-0.484,5.753-0.771L2052.23,2736.083L2052.23,2736.083z"/>
	</g>
	<g>
		<path fill="#FFFFFF" d="M1872.529,2811.114h-6.456c-1.704-5.021-4.44-10.396-8.213-16.133c-3.768-5.734-7.25-8.824-10.44-9.266
			c-1.762-0.222-3.935-0.414-6.521-0.58c-2.588-0.164-4.814-0.246-6.688-0.246h-3.879v92.082c0,1.983,0.357,3.736,1.073,5.254
			c0.719,1.518,2.125,2.717,4.222,3.599c1.267,0.498,3.239,1.007,5.916,1.53c2.674,0.523,4.95,0.896,6.825,1.117v6.452h-65.443
			v-6.452c1.599-0.166,3.847-0.4,6.742-0.705c2.896-0.3,4.867-0.675,5.916-1.116c2.151-0.884,3.584-2.067,4.303-3.558
			c0.717-1.486,1.074-3.254,1.074-5.295v-92.908h-3.879c-1.873,0-4.102,0.082-6.688,0.246c-2.587,0.166-4.759,0.358-6.52,0.58
			c-3.193,0.44-6.672,3.531-10.441,9.266c-3.771,5.736-6.509,11.111-8.214,16.133h-6.454v-33.59h113.762v33.59H1872.529z"/>
		<path fill="#FFFFFF" d="M1967.343,2875.151c-1.931,3.145-4.261,6.109-6.992,8.894c-2.728,2.787-5.832,5.172-9.308,7.157
			c-3.694,2.098-7.432,3.683-11.211,4.754c-3.776,1.08-8.119,1.617-13.029,1.617c-8.163,0-15.209-1.158-21.139-3.477
			c-5.931-2.315-10.825-5.432-14.687-9.348c-3.86-3.916-6.742-8.534-8.646-13.858c-1.903-5.323-2.855-11.101-2.855-17.332
			c0-5.626,1.035-11.019,3.104-16.177c2.069-5.156,5.006-9.744,8.813-13.773c3.749-3.916,8.48-7.088,14.188-9.516
			c5.709-2.426,12.095-3.643,19.153-3.643c7.722,0,14.065,0.94,19.03,2.815c4.964,1.876,9.071,4.467,12.325,7.778
			c3.146,3.143,5.434,6.852,6.868,11.127c1.434,4.272,2.15,8.756,2.15,13.44v5.378h-55.928c0,11.309,2.177,19.915,6.535,25.814
			c4.354,5.901,11.278,8.854,20.766,8.854c5.184,0,9.847-1.421,13.981-4.262c4.138-2.84,7.666-6.439,10.591-10.797
			L1967.343,2875.151z M1935.737,2843.713c0-3.312-0.164-6.702-0.496-10.175c-0.33-3.479-0.911-6.318-1.737-8.524
			c-0.938-2.593-2.22-4.55-3.847-5.875c-1.626-1.323-3.682-1.983-6.164-1.983c-4.248,0-7.64,2.152-10.176,6.453
			c-2.538,4.302-3.916,11.113-4.136,20.436L1935.737,2843.713z"/>
		<path fill="#FFFFFF" d="M2069.852,2893.187c-2.424,1.049-5.285,2.014-8.587,2.898c-3.303,0.879-6.8,1.32-10.485,1.32
			c-6.771,0-11.753-1.007-14.945-3.018c-3.193-2.016-5.365-4.896-6.522-8.647h-0.495c-1.879,1.876-3.688,3.476-5.428,4.8
			c-1.74,1.322-3.606,2.455-5.594,3.393c-2.596,1.214-5.096,2.12-7.5,2.729c-2.402,0.608-5.76,0.912-10.066,0.912
			c-6.411,0-11.879-1.893-16.409-5.676s-6.795-8.797-6.795-15.041c0-3.588,0.497-6.642,1.494-9.154
			c0.993-2.512,2.401-4.735,4.226-6.67c1.656-1.77,3.576-3.229,5.759-4.395c2.183-1.158,4.571-2.232,7.169-3.227
			c4.972-1.824,10.938-3.716,17.898-5.679c6.959-1.959,12.042-3.714,15.248-5.264v-7.94c0-1.377-0.111-3.197-0.331-5.459
			c-0.22-2.263-0.69-4.164-1.407-5.709c-0.773-1.766-1.986-3.252-3.642-4.47c-1.656-1.213-3.835-1.819-6.538-1.819
			c-2.429,0-4.456,0.346-6.084,1.034s-2.938,1.394-3.93,2.111c0.166,1.103,0.635,2.785,1.41,5.045
			c0.773,2.262,1.161,4.44,1.161,6.536c0,0.938-0.249,2.108-0.746,3.518c-0.499,1.403-1.218,2.521-2.157,3.35
			c-1.271,1.104-2.697,1.959-4.273,2.564c-1.577,0.606-3.997,0.909-7.259,0.909c-4.647,0-8.16-1.117-10.539-3.351
			s-3.568-5.145-3.568-8.73c0-3.084,1.228-5.855,3.682-8.313c2.454-2.455,5.447-4.481,8.978-6.08
			c3.475-1.655,7.474-2.939,11.995-3.85c4.522-0.91,8.717-1.366,12.577-1.366c5.349,0,10.26,0.319,14.726,0.952
			c4.469,0.636,8.494,1.943,12.08,3.931c3.419,1.931,6.136,4.729,8.149,8.398c2.014,3.672,3.02,8.452,3.02,14.353
			c0,6.233-0.125,13.627-0.373,22.172c-0.248,8.554-0.371,14.178-0.371,16.882c0,2.48,0.371,4.439,1.116,5.873
			c0.746,1.436,1.89,2.512,3.434,3.228c0.938,0.441,2.412,0.702,4.427,0.785c2.014,0.083,3.847,0.124,5.502,0.124v6.04H2069.852z
			 M2028.815,2850.081c-3.101,1.053-6.173,2.252-9.218,3.607c-3.046,1.355-5.534,2.78-7.473,4.271
			c-2.046,1.548-3.652,3.525-4.815,5.931c-1.162,2.403-1.743,5.237-1.743,8.501c0,4.312,0.983,7.435,2.947,9.372
			c1.967,1.934,4.387,2.898,7.267,2.898c3.044,0,5.551-0.62,7.515-1.864c1.965-1.243,3.695-2.776,5.189-4.602L2028.815,2850.081z"/>
	</g>
</g>
<ellipse fill="#FFFFFF" cx="1921.852" cy="3011.433" rx="74" ry="71"/>
<path fill="#FFFFFF" d="M1882,2999.925c5.306-23.262-67.468-5.764-55.402-51.215c-2.455,0-9.387,1.17-11.84,2.282
	c-9.06,18.709,2.007,59.97,25.086,66.81c21.518,6.377,28.595,2.329,45.879,17.58L1882,2999.925z"/>
<path fill="#FFFFFF" d="M2031.455,2983.514c-4.102-18.129-37.498-34.499-53.998-4.5l10,6.999
	c43.082-16.991,20.807,43.125,6.006,32.104c-1.963,4.823-5.193,9.037-9.225,11.359
	C2017.455,3044.511,2036.215,3004.555,2031.455,2983.514z"/>
<ellipse fill="#FFFFFF" cx="1918.959" cy="2937.016" rx="7.5" ry="10.499"/>
<path fill="#FFFFFF" d="M1818.465,2962.515c0,0-10.5-34.498-50.998-23.999c0,0-59.997,29.998-55.497-20.999
	c0,0-9-26.999,77.996-22.499l-7.04-6.546c0,0-69.456-17.453-85.956,27.545c0,0-6,59.997,56.997,40.498
	C1753.969,2956.515,1797.466,2929.517,1818.465,2962.515z"/>
</svg>
