<?xml version="1.0" encoding="utf-8"?>
<!-- Generator: Adobe Illustrator 16.2.0, SVG Export Plug-In . SVG Version: 6.00 Build 0)  -->
<!DOCTYPE svg PUBLIC "-//W3C//DTD SVG 1.1//EN" "http://www.w3.org/Graphics/SVG/1.1/DTD/svg11.dtd">
<svg version="1.1" id="Layer_1" xmlns="http://www.w3.org/2000/svg" xmlns:xlink="http://www.w3.org/1999/xlink" x="0px" y="0px"
	 width="260px" height="260px" viewBox="180 162.219 260 260" enable-background="new 180 162.219 260 260" xml:space="preserve">
<ellipse cx="315.201" cy="291.184" rx="119.085" ry="112.255"/>
<g>
	<g>
		<path fill="#FFFFFF" d="M308.059,257.905h-25.41v-2.563c1.181-0.088,2.569-0.301,4.167-0.642c1.596-0.339,2.395-0.76,2.395-1.265
			c0-0.175-0.017-0.373-0.05-0.591c-0.031-0.219-0.125-0.515-0.279-0.888l-3.98-9.664h-16.103c-0.372,0.898-0.779,1.95-1.226,3.155
			c-0.447,1.206-0.833,2.28-1.16,3.222c-0.414,1.228-0.66,2.115-0.735,2.663c-0.077,0.549-0.116,0.932-0.116,1.15
			c0,0.702,0.531,1.299,1.594,1.792c1.062,0.492,2.83,0.849,5.304,1.068v2.563h-19.132v-2.563c0.724-0.044,1.54-0.159,2.449-0.345
			c0.909-0.187,1.627-0.443,2.152-0.773c0.898-0.525,1.66-1.172,2.285-1.94c0.623-0.766,1.145-1.675,1.561-2.728
			c2.542-6.158,5.09-12.327,7.643-18.507c2.553-6.179,5.374-12.995,8.465-20.447h6.574c4.295,10.563,7.658,18.912,10.092,25.049
			c2.432,6.137,4.504,11.221,6.213,15.253c0.285,0.658,0.646,1.255,1.084,1.792c0.438,0.537,1.063,1.047,1.874,1.528
			c0.613,0.351,1.325,0.614,2.137,0.789c0.811,0.176,1.545,0.285,2.202,0.329v2.563L308.059,257.905L308.059,257.905z
			 M283.548,239.036l-6.751-16.861l-6.653,16.861H283.548z"/>
		<path fill="#FFFFFF" d="M340.865,231.311c0,1.666-0.516,3.129-1.544,4.388c-1.031,1.262-2.39,1.892-4.077,1.892
			c-1.6,0-2.953-0.404-4.059-1.211c-1.107-0.809-1.66-1.997-1.66-3.568c0-0.764,0.055-1.358,0.164-1.784
			c0.109-0.425,0.209-0.824,0.297-1.194c-1.009,0.043-2.072,0.392-3.189,1.042c-1.117,0.652-2.104,1.521-2.958,2.606v18.047
			c0,0.768,0.12,1.402,0.361,1.906c0.241,0.505,0.646,0.899,1.217,1.184c0.481,0.241,1.266,0.443,2.35,0.607
			c1.086,0.165,1.868,0.258,2.351,0.28v2.399h-21.992v-2.399c0.549-0.043,1.102-0.104,1.66-0.181s1.035-0.181,1.431-0.313
			c0.7-0.241,1.184-0.613,1.446-1.117c0.264-0.504,0.395-1.161,0.395-1.973v-19.132c0-0.789-0.187-1.496-0.559-2.12
			c-0.373-0.625-0.822-1.123-1.349-1.496c-0.394-0.264-0.894-0.482-1.496-0.657c-0.603-0.176-1.265-0.296-1.988-0.362v-2.4
			l15.679-0.855l0.494,0.494v4.767h0.131c1.513-1.753,3.117-3.129,4.816-4.127c1.698-0.997,3.468-1.495,5.309-1.495
			c2.039,0,3.676,0.63,4.915,1.89C340.246,227.69,340.865,229.318,340.865,231.311z"/>
		<path fill="#FFFFFF" d="M367.59,256.393c-1.402,0.614-2.903,1.167-4.504,1.66c-1.6,0.493-3.549,0.74-5.852,0.74
			c-3.418,0-5.955-0.832-7.609-2.495c-1.655-1.664-2.482-4.04-2.482-7.126V229.01h-5.916v-3.583h6.049v-9.961h10.65v9.961h9.238
			v3.583h-9.172v17.991c0,2.561,0.356,4.376,1.072,5.449c0.713,1.072,1.994,1.609,3.842,1.609c0.594,0,1.419-0.043,2.474-0.132
			c1.056-0.087,1.792-0.186,2.21-0.296V256.393L367.59,256.393z"/>
	</g>
	<g>
		<path fill="#FFFFFF" d="M298.559,285.216h-2.48c-0.654-1.929-1.705-3.994-3.154-6.198c-1.447-2.203-2.785-3.39-4.011-3.56
			c-0.677-0.085-1.512-0.159-2.505-0.223c-0.994-0.063-1.85-0.095-2.569-0.095h-1.49v35.373c0,0.762,0.138,1.436,0.412,2.019
			c0.276,0.583,0.816,1.043,1.622,1.383c0.486,0.191,1.244,0.387,2.272,0.588c1.027,0.2,1.901,0.344,2.622,0.429v2.479h-25.141
			v-2.479c0.615-0.063,1.479-0.154,2.591-0.271c1.112-0.115,1.87-0.26,2.272-0.43c0.826-0.339,1.377-0.793,1.652-1.366
			c0.276-0.571,0.413-1.25,0.413-2.034v-35.69h-1.49c-0.72,0-1.575,0.032-2.569,0.095c-0.994,0.063-1.828,0.137-2.504,0.223
			c-1.227,0.169-2.563,1.356-4.012,3.56c-1.448,2.204-2.5,4.269-3.154,6.198h-2.48v-12.904h43.701v12.904H298.559z"/>
		<path fill="#FFFFFF" d="M334.98,309.815c-0.741,1.208-1.637,2.347-2.686,3.417c-1.048,1.07-2.24,1.986-3.575,2.749
			c-1.419,0.806-2.854,1.415-4.307,1.826c-1.45,0.415-3.119,0.621-5.005,0.621c-3.136,0-5.843-0.444-8.121-1.335
			c-2.278-0.89-4.158-2.087-5.643-3.592c-1.482-1.504-2.59-3.277-3.32-5.323c-0.731-2.045-1.097-4.265-1.097-6.658
			c0-2.161,0.397-4.232,1.192-6.214c0.795-1.98,1.923-3.743,3.385-5.291c1.441-1.504,3.258-2.723,5.451-3.656
			c2.192-0.932,4.646-1.399,7.357-1.399c2.966,0,5.402,0.36,7.31,1.081s3.485,1.716,4.735,2.988
			c1.208,1.208,2.088,2.632,2.639,4.275c0.55,1.641,0.825,3.363,0.825,5.162v2.066h-21.484c0,4.344,0.836,7.65,2.511,9.916
			c1.672,2.267,4.332,3.401,7.977,3.401c1.992,0,3.783-0.546,5.371-1.638c1.59-1.09,2.945-2.473,4.068-4.146L334.98,309.815z
			 M322.84,297.738c0-1.271-0.063-2.574-0.19-3.908c-0.127-1.336-0.351-2.427-0.667-3.274c-0.361-0.996-0.854-1.748-1.479-2.257
			c-0.624-0.508-1.414-0.762-2.367-0.762c-1.633,0-2.936,0.827-3.91,2.479c-0.975,1.653-1.504,4.269-1.588,7.85L322.84,297.738z"/>
		<path fill="#FFFFFF" d="M374.359,316.744c-0.932,0.403-2.029,0.773-3.299,1.113c-1.269,0.338-2.611,0.508-4.027,0.508
			c-2.602,0-4.515-0.388-5.741-1.16c-1.227-0.774-2.061-1.881-2.505-3.321h-0.19c-0.722,0.721-1.417,1.335-2.085,1.844
			c-0.668,0.508-1.386,0.942-2.149,1.304c-0.997,0.466-1.958,0.813-2.881,1.048c-0.923,0.233-2.213,0.351-3.866,0.351
			c-2.463,0-4.564-0.727-6.305-2.181c-1.74-1.453-2.609-3.379-2.609-5.778c0-1.378,0.19-2.551,0.573-3.516
			c0.382-0.965,0.923-1.819,1.624-2.563c0.636-0.68,1.373-1.24,2.212-1.688c0.839-0.444,1.756-0.857,2.754-1.239
			c1.91-0.701,4.202-1.428,6.876-2.182c2.673-0.753,4.625-1.428,5.857-2.022v-3.05c0-0.529-0.043-1.229-0.128-2.098
			c-0.084-0.869-0.265-1.6-0.54-2.193c-0.297-0.678-0.764-1.249-1.399-1.717c-0.636-0.466-1.473-0.699-2.511-0.699
			c-0.934,0-1.713,0.133-2.338,0.397s-1.129,0.536-1.51,0.811c0.064,0.424,0.244,1.069,0.542,1.938
			c0.297,0.869,0.446,1.706,0.446,2.51c0,0.36-0.096,0.81-0.287,1.352c-0.191,0.539-0.468,0.969-0.828,1.287
			c-0.488,0.425-1.036,0.753-1.642,0.985c-0.606,0.232-1.536,0.35-2.789,0.35c-1.784,0-3.134-0.43-4.048-1.288
			s-1.371-1.977-1.371-3.354c0-1.185,0.472-2.249,1.415-3.193c0.942-0.943,2.092-1.721,3.448-2.336
			c1.336-0.636,2.871-1.129,4.608-1.479s3.349-0.525,4.831-0.525c2.055,0,3.941,0.123,5.657,0.366
			c1.716,0.244,3.263,0.746,4.64,1.51c1.314,0.742,2.357,1.816,3.131,3.226c0.773,1.411,1.16,3.247,1.16,5.514
			c0,2.394-0.048,5.234-0.143,8.517c-0.096,3.286-0.143,5.446-0.143,6.485c0,0.953,0.143,1.705,0.428,2.256
			c0.287,0.553,0.727,0.966,1.319,1.24c0.36,0.17,0.927,0.27,1.701,0.302c0.773,0.032,1.478,0.048,2.113,0.048v2.32H374.359
			L374.359,316.744z M358.596,300.186c-1.191,0.404-2.371,0.865-3.541,1.385c-1.171,0.521-2.127,1.068-2.871,1.641
			c-0.786,0.596-1.403,1.354-1.85,2.279c-0.447,0.923-0.67,2.012-0.67,3.266c0,1.656,0.378,2.855,1.133,3.6
			c0.756,0.743,1.686,1.113,2.791,1.113c1.17,0,2.133-0.238,2.887-0.716c0.755-0.478,1.42-1.066,1.994-1.768L358.596,300.186z"/>
	</g>
</g>
<ellipse fill="#FFFFFF" cx="317.506" cy="362.168" rx="28.427" ry="27.274"/>
<path fill="#FFFFFF" d="M302.197,357.747c2.038-8.936-25.918-2.214-21.283-19.674c-0.943,0-3.605,0.449-4.548,0.877
	c-3.48,7.187,0.771,23.037,9.636,25.664c8.268,2.45,10.985,0.896,17.625,6.754L302.197,357.747z"/>
<path fill="#FFFFFF" d="M359.609,351.443c-1.575-6.965-14.404-13.253-20.743-1.729l3.842,2.688
	c16.55-6.526,7.993,16.566,2.307,12.334c-0.754,1.852-1.995,3.471-3.544,4.363C354.231,374.875,361.438,359.525,359.609,351.443z"/>
<ellipse fill="#FFFFFF" cx="316.395" cy="333.581" rx="2.881" ry="4.033"/>
<path fill="#FFFFFF" d="M277.79,343.376c0,0-4.034-13.252-19.591-9.219c0,0-23.048,11.523-21.318-8.067
	c0,0-3.458-10.371,29.961-8.643l-2.704-2.515c0,0-26.681-6.704-33.02,10.581c0,0-2.306,23.048,21.896,15.558
	C253.014,341.071,269.723,330.7,277.79,343.376z"/>
</svg>
